<?xml version="1.0" encoding="UTF-8" standalone="no"?>
<!DOCTYPE svg PUBLIC "-//W3C//DTD SVG 1.1//EN" "http://www.w3.org/Graphics/SVG/1.1/DTD/svg11.dtd">
<svg xmlns="http://www.w3.org/2000/svg" version="1.1" viewBox="0.00 0.00 1024.00 1024.00">
<g stroke-width="2.00" fill="none" stroke-linecap="butt">
<path stroke="#14264e" vector-effect="non-scaling-stroke" d="
  M 255.96 303.53
  Q 260.74 318.83 268.91 329.56
  C 284.94 350.62 310.29 363.49 336.27 368.73"
/>
<path stroke="#1a3865" vector-effect="non-scaling-stroke" d="
  M 336.27 368.73
  Q 368.68 375.11 401.50 371.52
  Q 427.89 368.63 455.12 361.10
  Q 469.28 357.19 469.42 357.15
  Q 476.33 355.19 502.83 346.54
  Q 510.42 344.06 535.99 335.14
  Q 585.71 317.81 608.45 310.72
  C 631.58 303.52 655.89 296.85 680.18 295.69
  C 719.96 293.80 764.52 315.31 760.89 361.64
  A 0.19 0.19 0.0 0 0 761.24 361.75
  Q 776.48 334.64 777.77 303.89
  Q 777.93 299.97 777.66 297.65
  C 777.08 292.82 776.77 287.11 775.74 282.17
  Q 767.55 242.64 729.63 227.36
  Q 720.41 223.65 712.30 221.96
  Q 689.35 217.18 665.72 218.16
  C 637.11 219.35 608.35 224.01 581.00 231.28
  Q 555.08 238.17 527.16 248.17
  Q 518.14 251.40 466.97 269.68
  C 421.85 285.79 377.44 298.79 330.26 296.91
  C 305.93 295.94 281.13 290.35 261.30 275.95
  Q 254.65 271.12 251.84 267.41
  Q 251.10 266.43 250.32 265.00
  A 0.30 0.30 0.0 0 0 249.76 265.14
  Q 249.71 284.66 255.96 303.53"
/>
<path stroke="#2e5eb3" vector-effect="non-scaling-stroke" d="
  M 336.27 368.73
  Q 336.26 367.81 336.50 367.86
  Q 370.05 374.04 402.75 370.24
  C 411.10 369.27 419.68 368.04 425.28 366.92
  Q 453.30 361.35 481.59 352.16
  A 0.52 0.52 0.0 0 0 481.93 351.54
  C 477.75 335.06 468.08 320.66 456.34 309.30
  Q 445.59 298.91 440.77 293.78
  Q 438.66 291.54 432.24 282.85
  A 0.75 0.75 0.0 0 0 431.41 282.58
  Q 408.27 289.93 382.35 294.51
  Q 372.60 296.24 359.81 297.27
  Q 335.20 299.24 314.26 296.39
  Q 307.63 295.48 299.06 293.59
  Q 279.64 289.28 263.31 278.40
  Q 258.65 275.30 254.26 271.23
  Q 252.73 269.82 251.84 268.22
  A 0.63 0.63 0.0 0 0 250.65 268.54
  Q 251.00 285.52 256.80 303.19
  A 0.23 0.23 0.0 0 1 256.43 303.43
  Q 256.19 303.21 255.96 303.53"
/>
<path stroke="#1f144a" vector-effect="non-scaling-stroke" d="
  M 611.58 393.09
  C 592.19 408.85 571.21 423.05 549.87 436.40
  Q 513.88 458.93 511.41 460.42
  Q 486.23 475.62 442.23 502.76
  Q 401.97 527.59 386.01 538.51
  Q 369.63 549.71 369.59 549.74
  C 358.15 557.52 347.71 565.78 335.20 575.45
  Q 306.53 597.62 283.99 624.74
  Q 274.69 635.94 265.68 650.55
  A 3.67 3.62 -23.7 0 0 265.21 651.73
  Q 262.27 665.63 264.05 676.22
  C 266.68 691.87 279.33 704.72 293.88 710.12
  Q 302.55 713.33 310.72 713.98"
/>
<path stroke="#2a154c" vector-effect="non-scaling-stroke" d="
  M 310.72 713.98
  Q 338.84 717.54 365.74 709.97
  A 0.26 0.25 76.8 0 0 365.92 709.67
  C 361.31 687.45 373.98 662.54 388.50 646.28
  Q 402.66 630.42 422.31 615.32
  C 442.11 600.10 464.41 585.53 487.29 571.55
  Q 517.69 552.97 584.01 513.75
  Q 595.53 506.93 611.28 496.99
  C 635.26 481.84 653.83 469.44 673.74 454.74
  Q 693.67 440.02 711.80 422.41"
/>
<path stroke="#1f144a" vector-effect="non-scaling-stroke" d="
  M 711.80 422.41
  Q 715.34 420.05 720.62 414.62
  Q 737.15 397.59 748.73 380.12"
/>
<path stroke="#0d113a" vector-effect="non-scaling-stroke" d="
  M 748.73 380.12
  Q 754.37 373.04 754.91 364.63
  Q 755.37 357.47 754.95 351.27
  C 753.54 330.77 737.03 314.32 718.77 307.76
  Q 706.67 303.42 696.24 302.16
  Q 689.08 301.30 673.86 301.96
  C 667.80 302.23 661.62 303.51 656.61 304.45
  A 0.62 0.61 -13.9 0 0 656.13 305.23
  C 661.57 322.98 656.91 342.41 646.26 357.28
  C 636.60 370.79 624.37 382.56 611.58 393.09"
/>
<path stroke="#2c2484" vector-effect="non-scaling-stroke" d="
  M 748.73 380.12
  L 732.32 399.56
  A 0.79 0.76 28.7 0 1 731.49 399.79
  C 707.63 391.68 684.45 389.98 657.90 388.98
  Q 633.90 388.07 611.58 393.09"
/>
<path stroke="#492996" vector-effect="non-scaling-stroke" d="
  M 711.80 422.41
  Q 705.87 426.75 700.54 431.58
  Q 691.19 440.05 689.70 441.21
  Q 683.08 446.37 670.52 456.12
  A 1.32 1.28 -62.7 0 1 669.69 456.40
  Q 649.26 456.11 635.12 459.45
  C 616.89 463.74 600.92 467.40 583.85 473.43
  Q 559.46 482.05 538.79 492.20
  Q 520.14 501.36 500.80 510.82
  C 488.77 516.72 466.94 524.40 453.42 531.12
  Q 442.18 536.70 431.41 543.25
  Q 395.53 565.08 370.15 599.38
  Q 359.88 613.26 347.93 631.72
  C 342.39 640.28 336.47 649.67 333.88 659.04
  C 332.17 665.22 334.13 669.33 334.80 675.32
  Q 335.67 683.00 336.55 687.45
  C 338.42 696.90 343.09 704.40 349.58 712.06
  A 0.30 0.30 0.0 0 1 349.39 712.55
  Q 330.61 714.94 310.72 713.98"
/>
<path stroke="#5e1e52" vector-effect="non-scaling-stroke" d="
  M 664.00 614.39
  L 641.72 616.54"
/>
<path stroke="#511a53" vector-effect="non-scaling-stroke" d="
  M 641.72 616.54
  C 617.81 619.97 594.66 625.99 571.11 633.79
  Q 568.17 634.76 565.18 636.00"
/>
<path stroke="#421753" vector-effect="non-scaling-stroke" d="
  M 565.18 636.00
  Q 548.85 641.66 535.21 647.21
  Q 496.66 662.92 456.50 681.66
  Q 439.71 689.49 422.83 697.07
  Q 397.52 708.43 371.04 716.31"
/>
<path stroke="#2a154c" vector-effect="non-scaling-stroke" d="
  M 371.04 716.31
  Q 351.48 721.83 331.24 722.76
  Q 310.71 723.72 291.39 716.87
  Q 270.57 709.49 261.25 690.27
  C 258.88 685.37 257.97 680.55 256.25 674.22
  A 0.53 0.53 0.0 0 0 255.25 674.17
  Q 247.21 695.19 246.95 717.24
  C 246.89 721.75 247.56 725.86 247.69 730.22
  Q 247.82 734.47 249.08 739.65
  Q 251.58 749.94 256.26 759.69
  C 264.53 776.90 280.32 789.96 298.13 796.37
  Q 304.24 798.58 305.37 798.88
  Q 322.07 803.37 340.29 803.77"
/>
<path stroke="#421753" vector-effect="non-scaling-stroke" d="
  M 340.29 803.77
  Q 353.83 803.83 359.43 803.18
  Q 395.22 799.01 428.75 786.25"
/>
<path stroke="#511a53" vector-effect="non-scaling-stroke" d="
  M 428.75 786.25
  Q 451.47 777.86 473.65 768.45
  Q 500.03 757.27 526.42 746.12
  Q 532.67 743.48 538.88 741.29"
/>
<path stroke="#5e1e52" vector-effect="non-scaling-stroke" d="
  M 538.88 741.29
  Q 574.47 727.08 610.90 716.81"
/>
<path stroke="#692150" vector-effect="non-scaling-stroke" d="
  M 610.90 716.81
  Q 634.92 710.93 641.18 709.67
  Q 644.17 709.08 663.71 706.05
  C 669.86 705.10 676.66 704.84 683.25 704.04
  Q 684.89 703.85 690.03 703.98"
/>
<path stroke="#75254c" vector-effect="non-scaling-stroke" d="
  M 690.03 703.98
  C 698.54 703.85 707.05 703.73 715.51 704.84
  Q 724.84 706.07 725.91 706.23
  Q 742.60 708.71 757.75 716.34
  C 763.33 719.15 767.16 722.12 772.11 726.12
  Q 781.42 733.66 787.22 744.33
  A 1.16 1.16 0.0 0 0 789.40 743.77
  C 789.38 729.78 789.93 715.49 788.00 701.02
  Q 786.29 688.17 782.33 676.45
  Q 775.77 657.06 761.89 642.86
  Q 746.88 627.51 724.08 620.95"
/>
<path stroke="#692150" vector-effect="non-scaling-stroke" d="
  M 724.08 620.95
  C 704.42 614.74 684.68 613.57 664.00 614.39"
/>
<path stroke="#de469c" vector-effect="non-scaling-stroke" d="
  M 724.08 620.95
  Q 712.07 640.31 706.24 662.25
  C 704.33 669.43 704.85 677.22 702.09 684.12
  Q 698.32 693.54 695.99 703.11
  A 0.68 0.68 0.0 0 1 695.37 703.63
  L 690.03 703.98"
/>
<path stroke="#c73fa2" vector-effect="non-scaling-stroke" d="
  M 610.90 716.81
  Q 613.51 707.38 619.79 699.90
  C 639.15 676.84 651.64 664.16 661.26 642.39
  C 665.74 632.25 666.84 624.67 664.00 614.39"
/>
<path stroke="#af38a5" vector-effect="non-scaling-stroke" d="
  M 538.88 741.29
  C 550.88 731.55 563.19 721.56 573.73 710.94
  Q 580.83 703.79 587.58 697.49
  C 596.38 689.26 605.60 678.61 612.83 670.41
  C 619.46 662.90 625.72 655.67 629.26 647.39
  C 634.21 635.80 637.27 626.74 641.72 616.54"
/>
<path stroke="#9231a6" vector-effect="non-scaling-stroke" d="
  M 428.75 786.25
  Q 441.06 772.84 453.12 759.32
  Q 467.10 743.65 472.35 738.70
  Q 484.93 726.86 493.79 720.34
  C 499.37 716.24 507.19 712.08 510.77 709.47
  Q 514.10 707.04 519.39 701.81
  C 531.50 689.82 542.15 679.58 551.82 666.90
  Q 562.34 653.10 565.18 636.00"
/>
<path stroke="#6b2c9f" vector-effect="non-scaling-stroke" d="
  M 340.29 803.77
  Q 335.57 794.76 337.22 784.60
  Q 339.39 771.23 345.10 759.73
  C 350.62 748.59 356.59 737.73 362.00 726.53"
/>
<path stroke="#ab38a3" vector-effect="non-scaling-stroke" d="
  M 362.00 726.53
  Q 362.28 726.78 362.57 726.83
  Q 362.93 726.90 363.10 726.62
  Q 363.27 726.31 363.20 725.77"
/>
<path stroke="#6b2c9f" vector-effect="non-scaling-stroke" d="
  M 363.20 725.77
  Q 365.74 720.09 371.04 716.31"
/>
<path stroke="#93369c" vector-effect="non-scaling-stroke" d="
  M 363.20 725.77
  Q 362.38 725.04 362.05 725.59
  Q 361.85 725.91 362.00 726.53"
/>
<path stroke="#306acb" vector-effect="non-scaling-stroke" d="
  M 640.51 300.27
  Q 655.41 296.81 669.04 295.38
  Q 670.82 295.20 678.79 294.38
  Q 684.20 293.83 689.99 294.40
  Q 702.69 295.64 712.51 298.32
  C 727.44 302.40 740.24 309.71 750.36 321.64
  Q 760.14 333.16 762.18 351.23
  Q 762.37 352.85 762.58 353.77
  A 0.78 0.77 51.9 0 0 764.03 353.95
  Q 770.69 340.39 774.09 324.70
  C 777.87 307.28 777.38 290.61 772.33 274.09
  Q 766.77 255.87 752.35 242.28
  Q 750.69 240.72 748.91 239.49
  C 745.50 237.14 742.83 235.00 739.59 233.36
  Q 724.29 225.58 711.52 222.95
  Q 709.18 222.47 696.50 220.68
  C 691.04 219.90 684.27 219.96 678.96 219.34
  A 1.33 1.32 9.5 0 0 677.50 220.38
  Q 677.26 221.54 675.92 222.38
  Q 669.15 226.64 666.34 228.60
  C 650.15 239.91 648.10 259.39 646.05 277.92
  Q 645.17 285.81 640.21 299.94
  A 0.26 0.25 3.1 0 0 640.51 300.27"
/>
<path stroke="#4e288d" vector-effect="non-scaling-stroke" d="
  M 686.4302 341.7850
  A 0.66 0.55 -181.3 0 0 687.1025 342.3199
  A 0.66 0.55 -181.3 0 0 687.7498 341.7550
  A 0.66 0.55 -181.3 0 0 687.0775 341.2201
  A 0.66 0.55 -181.3 0 0 686.4302 341.7850"
/>
<path stroke="#88359a" vector-effect="non-scaling-stroke" d="
  M 565.84 442.71
  A 0.69 0.69 0.0 0 0 565.15 442.02
  A 0.69 0.69 0.0 0 0 564.46 442.71
  A 0.69 0.69 0.0 0 0 565.15 443.40
  A 0.69 0.69 0.0 0 0 565.84 442.71"
/>
<path stroke="#7d319c" vector-effect="non-scaling-stroke" d="
  M 524.09 457.50
  A 0.64 0.64 0.0 0 0 523.45 456.86
  A 0.64 0.64 0.0 0 0 522.81 457.50
  A 0.64 0.64 0.0 0 0 523.45 458.14
  A 0.64 0.64 0.0 0 0 524.09 457.50"
/>
<path stroke="#7d319c" vector-effect="non-scaling-stroke" d="
  M 334.79 598.45
  A 0.58 0.58 0.0 0 0 334.21 597.87
  A 0.58 0.58 0.0 0 0 333.63 598.45
  A 0.58 0.58 0.0 0 0 334.21 599.03
  A 0.58 0.58 0.0 0 0 334.79 598.45"
/>
<path stroke="#492996" vector-effect="non-scaling-stroke" d="
  M 329.4050 680.2443
  A 0.74 0.58 -101.3 0 0 328.9812 681.0836
  A 0.74 0.58 -101.3 0 0 329.6950 681.6957
  A 0.74 0.58 -101.3 0 0 330.1188 680.8564
  A 0.74 0.58 -101.3 0 0 329.4050 680.2443"
/>
<path stroke="#af38a5" vector-effect="non-scaling-stroke" d="
  M 570.7864 648.6105
  A 0.80 0.68 -128.1 0 0 570.7449 649.6596
  A 0.80 0.68 -128.1 0 0 571.7736 649.8695
  A 0.80 0.68 -128.1 0 0 571.8151 648.8204
  A 0.80 0.68 -128.1 0 0 570.7864 648.6105"
/>
<path stroke="#af38a5" vector-effect="non-scaling-stroke" d="
  M 536.8143 713.5043
  A 0.90 0.66 -137.7 0 0 537.0358 714.5982
  A 0.90 0.66 -137.7 0 0 538.1457 714.7157
  A 0.90 0.66 -137.7 0 0 537.9242 713.6218
  A 0.90 0.66 -137.7 0 0 536.8143 713.5043"
/>
<path stroke="#a035a5" vector-effect="non-scaling-stroke" d="
  M 474.2615 686.0396
  A 0.51 0.43 -149.3 0 0 474.4805 686.6697
  A 0.51 0.43 -149.3 0 0 475.1385 686.5604
  A 0.51 0.43 -149.3 0 0 474.9195 685.9303
  A 0.51 0.43 -149.3 0 0 474.2615 686.0396"
/>
<path stroke="#a035a5" vector-effect="non-scaling-stroke" d="
  M 444.0143 697.5367
  A 0.73 0.46 -116.5 0 0 443.9283 698.3953
  A 0.73 0.46 -116.5 0 0 444.6657 698.8433
  A 0.73 0.46 -116.5 0 0 444.7517 697.9847
  A 0.73 0.46 -116.5 0 0 444.0143 697.5367"
/>
<path stroke="#9d56b0" vector-effect="non-scaling-stroke" d="
  M 425.9741 742.3381
  A 1.10 0.74 -33.8 0 0 424.6483 742.3351
  A 1.10 0.74 -33.8 0 0 424.1459 743.5619
  A 1.10 0.74 -33.8 0 0 425.4717 743.5649
  A 1.10 0.74 -33.8 0 0 425.9741 742.3381"
/>
<path stroke="#88339e" vector-effect="non-scaling-stroke" d="
  M 322.8310 781.6582
  A 1.01 0.74 -79.1 0 0 321.9134 782.5101
  A 1.01 0.74 -79.1 0 0 322.4490 783.6418
  A 1.01 0.74 -79.1 0 0 323.3666 782.7899
  A 1.01 0.74 -79.1 0 0 322.8310 781.6582"
/>
</g>
<path fill="#000000" d="
  M 371.65 707.42
  A 0.69 0.69 0.0 0 0 372.55 708.00
  Q 381.45 705.01 387.69 702.85
  Q 397.07 699.61 409.73 694.43
  Q 419.64 690.36 431.35 684.96
  Q 458.29 672.51 481.79 661.80
  Q 495.09 655.74 504.26 651.90
  Q 524.26 643.51 526.92 642.44
  Q 548.40 633.80 568.83 626.61
  Q 581.37 622.18 601.57 616.59
  Q 618.31 611.96 636.50 609.06
  Q 660.05 605.30 683.66 606.15
  C 686.23 606.24 690.17 606.84 693.00 607.03
  Q 712.02 608.30 730.15 614.65
  Q 755.49 623.52 772.13 643.01
  Q 781.09 653.51 786.36 665.66
  Q 789.20 672.21 791.88 681.79
  Q 792.93 685.56 795.49 699.30
  Q 796.04 702.25 796.04 704.23
  C 796.05 706.44 796.58 708.49 796.74 710.82
  Q 798.38 735.59 794.65 759.55
  A 3.10 3.09 58.9 0 1 794.53 760.04
  Q 793.78 762.31 793.79 764.68
  A 2.39 1.82 -87.1 0 1 791.72 767.13
  Q 788.73 766.70 787.63 763.29
  Q 780.47 741.14 762.57 728.17
  C 750.86 719.69 735.14 715.24 720.30 713.45
  Q 719.22 713.32 711.43 712.51
  C 703.27 711.66 695.65 711.95 687.22 711.99
  C 682.37 712.02 679.00 712.79 673.51 713.10
  Q 666.91 713.47 651.03 716.15
  Q 619.82 721.43 585.31 732.86
  Q 551.65 744.01 519.12 757.63
  Q 496.55 767.08 477.46 775.21
  Q 447.59 787.93 423.28 796.25
  Q 397.27 805.15 373.98 808.87
  Q 352.04 812.37 330.50 811.06
  Q 323.43 810.63 312.64 808.72
  C 312.06 808.62 311.61 808.17 310.97 808.10
  Q 307.47 807.74 307.44 807.63
  Q 307.43 807.59 301.18 805.70
  Q 278.83 798.94 262.93 782.41
  Q 256.38 775.60 251.79 767.17
  C 244.82 754.38 241.33 740.45 240.07 726.50
  Q 239.93 724.94 239.97 714.50
  Q 239.99 708.11 240.78 702.55
  Q 242.16 692.86 244.51 683.98
  Q 248.66 668.32 256.12 654.83
  Q 271.78 626.51 294.90 603.15
  Q 311.49 586.40 327.92 573.17
  Q 359.88 547.42 393.54 525.78
  Q 406.47 517.46 430.57 502.30
  Q 446.31 492.40 467.93 479.32
  Q 520.83 447.31 543.36 433.11
  Q 568.21 417.44 586.92 404.16
  Q 603.34 392.50 615.67 381.41
  C 626.46 371.71 636.04 361.59 643.32 349.30
  Q 651.25 335.89 651.70 320.79
  C 651.85 315.78 651.04 312.00 649.79 306.99
  A 1.35 1.35 0.0 0 0 647.90 306.10
  Q 646.57 306.73 645.27 307.05
  Q 635.65 309.42 615.91 315.41
  Q 607.82 317.87 578.39 327.63
  Q 563.42 332.60 541.06 340.43
  Q 515.49 349.39 494.83 356.09
  Q 467.13 365.07 440.64 371.64
  Q 436.44 372.67 415.83 376.40
  Q 412.77 376.96 411.14 376.94
  C 408.92 376.91 407.10 377.89 404.93 377.91
  Q 400.08 377.94 395.64 378.47
  C 387.55 379.46 379.11 379.10 370.80 379.09
  Q 363.17 379.08 356.22 378.30
  Q 345.54 377.12 341.74 376.49
  Q 335.22 375.40 326.00 372.99
  Q 302.09 366.72 283.34 352.61
  Q 260.31 335.28 250.58 307.39
  Q 246.81 296.58 245.30 287.28
  Q 244.98 285.32 244.94 283.71
  C 244.90 282.04 244.25 280.45 244.14 278.99
  Q 243.08 264.98 244.51 253.53
  Q 244.88 250.55 248.17 249.56
  A 0.77 0.76 65.6 0 1 249.04 249.89
  Q 250.43 252.07 251.12 254.11
  A 1.27 0.47 46.9 0 0 251.20 254.30
  Q 256.71 265.45 269.59 273.38
  Q 280.94 280.38 292.29 283.96
  Q 304.72 287.87 314.76 288.93
  Q 318.63 289.34 319.73 289.67
  A 2.15 2.04 53.5 0 0 320.30 289.77
  Q 338.06 290.85 354.43 289.99
  Q 358.11 289.80 359.30 289.60
  C 363.12 288.96 365.48 289.25 368.79 288.21
  C 370.26 287.74 372.79 288.01 375.05 287.68
  Q 390.56 285.40 405.71 281.46
  Q 419.65 277.82 436.16 272.81
  Q 446.79 269.59 466.17 262.71
  Q 504.19 249.22 520.07 243.53
  Q 531.69 239.36 536.26 237.93
  Q 539.42 236.93 552.57 232.61
  Q 563.98 228.86 580.25 224.55
  Q 596.62 220.21 620.01 216.06
  Q 643.35 211.92 667.43 211.17
  Q 680.15 210.77 696.14 212.43
  Q 698.92 212.72 706.53 214.06
  C 724.06 217.15 740.74 223.35 754.59 234.25
  Q 757.79 236.77 763.37 242.76
  C 773.72 253.87 779.81 267.63 782.47 282.79
  Q 784.82 296.23 783.72 310.24
  Q 782.46 326.21 777.87 339.97
  Q 775.59 346.81 770.81 356.81
  C 761.10 377.12 747.35 395.71 731.61 412.05
  C 729.22 414.54 726.45 418.06 723.79 420.54
  C 717.08 426.77 709.21 434.44 702.08 440.48
  Q 682.06 457.43 659.70 472.95
  Q 629.50 493.90 597.22 513.21
  Q 540.51 547.13 498.05 572.57
  Q 462.80 593.69 431.15 616.67
  Q 410.86 631.41 393.83 649.82
  Q 383.71 660.78 377.85 674.27
  C 372.97 685.51 370.35 695.91 371.65 707.42
  Z
  M 255.96 303.53
  Q 260.74 318.83 268.91 329.56
  C 284.94 350.62 310.29 363.49 336.27 368.73
  Q 368.68 375.11 401.50 371.52
  Q 427.89 368.63 455.12 361.10
  Q 469.28 357.19 469.42 357.15
  Q 476.33 355.19 502.83 346.54
  Q 510.42 344.06 535.99 335.14
  Q 585.71 317.81 608.45 310.72
  C 631.58 303.52 655.89 296.85 680.18 295.69
  C 719.96 293.80 764.52 315.31 760.89 361.64
  A 0.19 0.19 0.0 0 0 761.24 361.75
  Q 776.48 334.64 777.77 303.89
  Q 777.93 299.97 777.66 297.65
  C 777.08 292.82 776.77 287.11 775.74 282.17
  Q 767.55 242.64 729.63 227.36
  Q 720.41 223.65 712.30 221.96
  Q 689.35 217.18 665.72 218.16
  C 637.11 219.35 608.35 224.01 581.00 231.28
  Q 555.08 238.17 527.16 248.17
  Q 518.14 251.40 466.97 269.68
  C 421.85 285.79 377.44 298.79 330.26 296.91
  C 305.93 295.94 281.13 290.35 261.30 275.95
  Q 254.65 271.12 251.84 267.41
  Q 251.10 266.43 250.32 265.00
  A 0.30 0.30 0.0 0 0 249.76 265.14
  Q 249.71 284.66 255.96 303.53
  Z
  M 611.58 393.09
  C 592.19 408.85 571.21 423.05 549.87 436.40
  Q 513.88 458.93 511.41 460.42
  Q 486.23 475.62 442.23 502.76
  Q 401.97 527.59 386.01 538.51
  Q 369.63 549.71 369.59 549.74
  C 358.15 557.52 347.71 565.78 335.20 575.45
  Q 306.53 597.62 283.99 624.74
  Q 274.69 635.94 265.68 650.55
  A 3.67 3.62 -23.7 0 0 265.21 651.73
  Q 262.27 665.63 264.05 676.22
  C 266.68 691.87 279.33 704.72 293.88 710.12
  Q 302.55 713.33 310.72 713.98
  Q 338.84 717.54 365.74 709.97
  A 0.26 0.25 76.8 0 0 365.92 709.67
  C 361.31 687.45 373.98 662.54 388.50 646.28
  Q 402.66 630.42 422.31 615.32
  C 442.11 600.10 464.41 585.53 487.29 571.55
  Q 517.69 552.97 584.01 513.75
  Q 595.53 506.93 611.28 496.99
  C 635.26 481.84 653.83 469.44 673.74 454.74
  Q 693.67 440.02 711.80 422.41
  Q 715.34 420.05 720.62 414.62
  Q 737.15 397.59 748.73 380.12
  Q 754.37 373.04 754.91 364.63
  Q 755.37 357.47 754.95 351.27
  C 753.54 330.77 737.03 314.32 718.77 307.76
  Q 706.67 303.42 696.24 302.16
  Q 689.08 301.30 673.86 301.96
  C 667.80 302.23 661.62 303.51 656.61 304.45
  A 0.62 0.61 -13.9 0 0 656.13 305.23
  C 661.57 322.98 656.91 342.41 646.26 357.28
  C 636.60 370.79 624.37 382.56 611.58 393.09
  Z
  M 664.00 614.39
  L 641.72 616.54
  C 617.81 619.97 594.66 625.99 571.11 633.79
  Q 568.17 634.76 565.18 636.00
  Q 548.85 641.66 535.21 647.21
  Q 496.66 662.92 456.50 681.66
  Q 439.71 689.49 422.83 697.07
  Q 397.52 708.43 371.04 716.31
  Q 351.48 721.83 331.24 722.76
  Q 310.71 723.72 291.39 716.87
  Q 270.57 709.49 261.25 690.27
  C 258.88 685.37 257.97 680.55 256.25 674.22
  A 0.53 0.53 0.0 0 0 255.25 674.17
  Q 247.21 695.19 246.95 717.24
  C 246.89 721.75 247.56 725.86 247.69 730.22
  Q 247.82 734.47 249.08 739.65
  Q 251.58 749.94 256.26 759.69
  C 264.53 776.90 280.32 789.96 298.13 796.37
  Q 304.24 798.58 305.37 798.88
  Q 322.07 803.37 340.29 803.77
  Q 353.83 803.83 359.43 803.18
  Q 395.22 799.01 428.75 786.25
  Q 451.47 777.86 473.65 768.45
  Q 500.03 757.27 526.42 746.12
  Q 532.67 743.48 538.88 741.29
  Q 574.47 727.08 610.90 716.81
  Q 634.92 710.93 641.18 709.67
  Q 644.17 709.08 663.71 706.05
  C 669.86 705.10 676.66 704.84 683.25 704.04
  Q 684.89 703.85 690.03 703.98
  C 698.54 703.85 707.05 703.73 715.51 704.84
  Q 724.84 706.07 725.91 706.23
  Q 742.60 708.71 757.75 716.34
  C 763.33 719.15 767.16 722.12 772.11 726.12
  Q 781.42 733.66 787.22 744.33
  A 1.16 1.16 0.0 0 0 789.40 743.77
  C 789.38 729.78 789.93 715.49 788.00 701.02
  Q 786.29 688.17 782.33 676.45
  Q 775.77 657.06 761.89 642.86
  Q 746.88 627.51 724.08 620.95
  C 704.42 614.74 684.68 613.57 664.00 614.39
  Z"
/>
<path fill="#3370c9" d="
  M 336.27 368.73
  Q 336.26 367.81 336.50 367.86
  Q 370.05 374.04 402.75 370.24
  C 411.10 369.27 419.68 368.04 425.28 366.92
  Q 453.30 361.35 481.59 352.16
  A 0.52 0.52 0.0 0 0 481.93 351.54
  C 477.75 335.06 468.08 320.66 456.34 309.30
  Q 445.59 298.91 440.77 293.78
  Q 438.66 291.54 432.24 282.85
  A 0.75 0.75 0.0 0 0 431.41 282.58
  Q 408.27 289.93 382.35 294.51
  Q 372.60 296.24 359.81 297.27
  Q 335.20 299.24 314.26 296.39
  Q 307.63 295.48 299.06 293.59
  Q 279.64 289.28 263.31 278.40
  Q 258.65 275.30 254.26 271.23
  Q 252.73 269.82 251.84 268.22
  A 0.63 0.63 0.0 0 0 250.65 268.54
  Q 251.00 285.52 256.80 303.19
  A 0.23 0.23 0.0 0 1 256.43 303.43
  Q 256.19 303.21 255.96 303.53
  Q 249.71 284.66 249.76 265.14
  A 0.30 0.30 0.0 0 1 250.32 265.00
  Q 251.10 266.43 251.84 267.41
  Q 254.65 271.12 261.30 275.95
  C 281.13 290.35 305.93 295.94 330.26 296.91
  C 377.44 298.79 421.85 285.79 466.97 269.68
  Q 518.14 251.40 527.16 248.17
  Q 555.08 238.17 581.00 231.28
  C 608.35 224.01 637.11 219.35 665.72 218.16
  Q 689.35 217.18 712.30 221.96
  Q 720.41 223.65 729.63 227.36
  Q 767.55 242.64 775.74 282.17
  C 776.77 287.11 777.08 292.82 777.66 297.65
  Q 777.93 299.97 777.77 303.89
  Q 776.48 334.64 761.24 361.75
  A 0.19 0.19 0.0 0 1 760.89 361.64
  C 764.52 315.31 719.96 293.80 680.18 295.69
  C 655.89 296.85 631.58 303.52 608.45 310.72
  Q 585.71 317.81 535.99 335.14
  Q 510.42 344.06 502.83 346.54
  Q 476.33 355.19 469.42 357.15
  Q 469.28 357.19 455.12 361.10
  Q 427.89 368.63 401.50 371.52
  Q 368.68 375.11 336.27 368.73
  Z
  M 640.51 300.27
  Q 655.41 296.81 669.04 295.38
  Q 670.82 295.20 678.79 294.38
  Q 684.20 293.83 689.99 294.40
  Q 702.69 295.64 712.51 298.32
  C 727.44 302.40 740.24 309.71 750.36 321.64
  Q 760.14 333.16 762.18 351.23
  Q 762.37 352.85 762.58 353.77
  A 0.78 0.77 51.9 0 0 764.03 353.95
  Q 770.69 340.39 774.09 324.70
  C 777.87 307.28 777.38 290.61 772.33 274.09
  Q 766.77 255.87 752.35 242.28
  Q 750.69 240.72 748.91 239.49
  C 745.50 237.14 742.83 235.00 739.59 233.36
  Q 724.29 225.58 711.52 222.95
  Q 709.18 222.47 696.50 220.68
  C 691.04 219.90 684.27 219.96 678.96 219.34
  A 1.33 1.32 9.5 0 0 677.50 220.38
  Q 677.26 221.54 675.92 222.38
  Q 669.15 226.64 666.34 228.60
  C 650.15 239.91 648.10 259.39 646.05 277.92
  Q 645.17 285.81 640.21 299.94
  A 0.26 0.25 3.1 0 0 640.51 300.27
  Z"
/>
<path fill="#2c64cc" d="
  M 640.21 299.94
  Q 645.17 285.81 646.05 277.92
  C 648.10 259.39 650.15 239.91 666.34 228.60
  Q 669.15 226.64 675.92 222.38
  Q 677.26 221.54 677.50 220.38
  A 1.33 1.32 9.5 0 1 678.96 219.34
  C 684.27 219.96 691.04 219.90 696.50 220.68
  Q 709.18 222.47 711.52 222.95
  Q 724.29 225.58 739.59 233.36
  C 742.83 235.00 745.50 237.14 748.91 239.49
  Q 750.69 240.72 752.35 242.28
  Q 766.77 255.87 772.33 274.09
  C 777.38 290.61 777.87 307.28 774.09 324.70
  Q 770.69 340.39 764.03 353.95
  A 0.78 0.77 51.9 0 1 762.58 353.77
  Q 762.37 352.85 762.18 351.23
  Q 760.14 333.16 750.36 321.64
  C 740.24 309.71 727.44 302.40 712.51 298.32
  Q 702.69 295.64 689.99 294.40
  Q 684.20 293.83 678.79 294.38
  Q 670.82 295.20 669.04 295.38
  Q 655.41 296.81 640.51 300.27
  A 0.26 0.25 3.1 0 1 640.21 299.94
  Z"
/>
<path fill="#284c9c" d="
  M 336.27 368.73
  C 310.29 363.49 284.94 350.62 268.91 329.56
  Q 260.74 318.83 255.96 303.53
  Q 256.19 303.21 256.43 303.43
  A 0.23 0.23 0.0 0 0 256.80 303.19
  Q 251.00 285.52 250.65 268.54
  A 0.63 0.63 0.0 0 1 251.84 268.22
  Q 252.73 269.82 254.26 271.23
  Q 258.65 275.30 263.31 278.40
  Q 279.64 289.28 299.06 293.59
  Q 307.63 295.48 314.26 296.39
  Q 335.20 299.24 359.81 297.27
  Q 372.60 296.24 382.35 294.51
  Q 408.27 289.93 431.41 282.58
  A 0.75 0.75 0.0 0 1 432.24 282.85
  Q 438.66 291.54 440.77 293.78
  Q 445.59 298.91 456.34 309.30
  C 468.08 320.66 477.75 335.06 481.93 351.54
  A 0.52 0.52 0.0 0 1 481.59 352.16
  Q 453.30 361.35 425.28 366.92
  C 419.68 368.04 411.10 369.27 402.75 370.24
  Q 370.05 374.04 336.50 367.86
  Q 336.26 367.81 336.27 368.73
  Z"
/>
<path fill="#192173" d="
  M 748.73 380.12
  L 732.32 399.56
  A 0.79 0.76 28.7 0 1 731.49 399.79
  C 707.63 391.68 684.45 389.98 657.90 388.98
  Q 633.90 388.07 611.58 393.09
  C 624.37 382.56 636.60 370.79 646.26 357.28
  C 656.91 342.41 661.57 322.98 656.13 305.23
  A 0.62 0.61 -13.9 0 1 656.61 304.45
  C 661.62 303.51 667.80 302.23 673.86 301.96
  Q 689.08 301.30 696.24 302.16
  Q 706.67 303.42 718.77 307.76
  C 737.03 314.32 753.54 330.77 754.95 351.27
  Q 755.37 357.47 754.91 364.63
  Q 754.37 373.04 748.73 380.12
  Z
  M 686.4302 341.7850
  A 0.66 0.55 -181.3 0 0 687.1025 342.3199
  A 0.66 0.55 -181.3 0 0 687.7498 341.7550
  A 0.66 0.55 -181.3 0 0 687.0775 341.2201
  A 0.66 0.55 -181.3 0 0 686.4302 341.7850
  Z"
/>
<ellipse fill="#832ea6" cx="0.00" cy="0.00" transform="translate(687.09,341.77) rotate(-181.3)" rx="0.66" ry="0.55"/>
<path fill="#3e2794" d="
  M 748.73 380.12
  Q 737.15 397.59 720.62 414.62
  Q 715.34 420.05 711.80 422.41
  Q 705.87 426.75 700.54 431.58
  Q 691.19 440.05 689.70 441.21
  Q 683.08 446.37 670.52 456.12
  A 1.32 1.28 -62.7 0 1 669.69 456.40
  Q 649.26 456.11 635.12 459.45
  C 616.89 463.74 600.92 467.40 583.85 473.43
  Q 559.46 482.05 538.79 492.20
  Q 520.14 501.36 500.80 510.82
  C 488.77 516.72 466.94 524.40 453.42 531.12
  Q 442.18 536.70 431.41 543.25
  Q 395.53 565.08 370.15 599.38
  Q 359.88 613.26 347.93 631.72
  C 342.39 640.28 336.47 649.67 333.88 659.04
  C 332.17 665.22 334.13 669.33 334.80 675.32
  Q 335.67 683.00 336.55 687.45
  C 338.42 696.90 343.09 704.40 349.58 712.06
  A 0.30 0.30 0.0 0 1 349.39 712.55
  Q 330.61 714.94 310.72 713.98
  Q 302.55 713.33 293.88 710.12
  C 279.33 704.72 266.68 691.87 264.05 676.22
  Q 262.27 665.63 265.21 651.73
  A 3.67 3.62 -23.7 0 1 265.68 650.55
  Q 274.69 635.94 283.99 624.74
  Q 306.53 597.62 335.20 575.45
  C 347.71 565.78 358.15 557.52 369.59 549.74
  Q 369.63 549.71 386.01 538.51
  Q 401.97 527.59 442.23 502.76
  Q 486.23 475.62 511.41 460.42
  Q 513.88 458.93 549.87 436.40
  C 571.21 423.05 592.19 408.85 611.58 393.09
  Q 633.90 388.07 657.90 388.98
  C 684.45 389.98 707.63 391.68 731.49 399.79
  A 0.79 0.76 28.7 0 0 732.32 399.56
  L 748.73 380.12
  Z
  M 565.84 442.71
  A 0.69 0.69 0.0 0 0 565.15 442.02
  A 0.69 0.69 0.0 0 0 564.46 442.71
  A 0.69 0.69 0.0 0 0 565.15 443.40
  A 0.69 0.69 0.0 0 0 565.84 442.71
  Z
  M 524.09 457.50
  A 0.64 0.64 0.0 0 0 523.45 456.86
  A 0.64 0.64 0.0 0 0 522.81 457.50
  A 0.64 0.64 0.0 0 0 523.45 458.14
  A 0.64 0.64 0.0 0 0 524.09 457.50
  Z
  M 334.79 598.45
  A 0.58 0.58 0.0 0 0 334.21 597.87
  A 0.58 0.58 0.0 0 0 333.63 598.45
  A 0.58 0.58 0.0 0 0 334.21 599.03
  A 0.58 0.58 0.0 0 0 334.79 598.45
  Z
  M 329.4050 680.2443
  A 0.74 0.58 -101.3 0 0 328.9812 681.0836
  A 0.74 0.58 -101.3 0 0 329.6950 681.6957
  A 0.74 0.58 -101.3 0 0 330.1188 680.8564
  A 0.74 0.58 -101.3 0 0 329.4050 680.2443
  Z"
/>
<path fill="#532a98" d="
  M 711.80 422.41
  Q 693.67 440.02 673.74 454.74
  C 653.83 469.44 635.26 481.84 611.28 496.99
  Q 595.53 506.93 584.01 513.75
  Q 517.69 552.97 487.29 571.55
  C 464.41 585.53 442.11 600.10 422.31 615.32
  Q 402.66 630.42 388.50 646.28
  C 373.98 662.54 361.31 687.45 365.92 709.67
  A 0.26 0.25 76.8 0 1 365.74 709.97
  Q 338.84 717.54 310.72 713.98
  Q 330.61 714.94 349.39 712.55
  A 0.30 0.30 0.0 0 0 349.58 712.06
  C 343.09 704.40 338.42 696.90 336.55 687.45
  Q 335.67 683.00 334.80 675.32
  C 334.13 669.33 332.17 665.22 333.88 659.04
  C 336.47 649.67 342.39 640.28 347.93 631.72
  Q 359.88 613.26 370.15 599.38
  Q 395.53 565.08 431.41 543.25
  Q 442.18 536.70 453.42 531.12
  C 466.94 524.40 488.77 516.72 500.80 510.82
  Q 520.14 501.36 538.79 492.20
  Q 559.46 482.05 583.85 473.43
  C 600.92 467.40 616.89 463.74 635.12 459.45
  Q 649.26 456.11 669.69 456.40
  A 1.32 1.28 -62.7 0 0 670.52 456.12
  Q 683.08 446.37 689.70 441.21
  Q 691.19 440.05 700.54 431.58
  Q 705.87 426.75 711.80 422.41
  Z"
/>
<circle fill="#d242a0" cx="565.15" cy="442.71" r="0.69"/>
<circle fill="#bc3ba4" cx="523.45" cy="457.50" r="0.64"/>
<circle fill="#bc3ba4" cx="334.21" cy="598.45" r="0.58"/>
<path fill="#d242a0" d="
  M 724.08 620.95
  Q 712.07 640.31 706.24 662.25
  C 704.33 669.43 704.85 677.22 702.09 684.12
  Q 698.32 693.54 695.99 703.11
  A 0.68 0.68 0.0 0 1 695.37 703.63
  L 690.03 703.98
  Q 684.89 703.85 683.25 704.04
  C 676.66 704.84 669.86 705.10 663.71 706.05
  Q 644.17 709.08 641.18 709.67
  Q 634.92 710.93 610.90 716.81
  Q 613.51 707.38 619.79 699.90
  C 639.15 676.84 651.64 664.16 661.26 642.39
  C 665.74 632.25 666.84 624.67 664.00 614.39
  C 684.68 613.57 704.42 614.74 724.08 620.95
  Z"
/>
<path fill="#bc3ba4" d="
  M 664.00 614.39
  C 666.84 624.67 665.74 632.25 661.26 642.39
  C 651.64 664.16 639.15 676.84 619.79 699.90
  Q 613.51 707.38 610.90 716.81
  Q 574.47 727.08 538.88 741.29
  C 550.88 731.55 563.19 721.56 573.73 710.94
  Q 580.83 703.79 587.58 697.49
  C 596.38 689.26 605.60 678.61 612.83 670.41
  C 619.46 662.90 625.72 655.67 629.26 647.39
  C 634.21 635.80 637.27 626.74 641.72 616.54
  L 664.00 614.39
  Z"
/>
<path fill="#a134a5" d="
  M 641.72 616.54
  C 637.27 626.74 634.21 635.80 629.26 647.39
  C 625.72 655.67 619.46 662.90 612.83 670.41
  C 605.60 678.61 596.38 689.26 587.58 697.49
  Q 580.83 703.79 573.73 710.94
  C 563.19 721.56 550.88 731.55 538.88 741.29
  Q 532.67 743.48 526.42 746.12
  Q 500.03 757.27 473.65 768.45
  Q 451.47 777.86 428.75 786.25
  Q 441.06 772.84 453.12 759.32
  Q 467.10 743.65 472.35 738.70
  Q 484.93 726.86 493.79 720.34
  C 499.37 716.24 507.19 712.08 510.77 709.47
  Q 514.10 707.04 519.39 701.81
  C 531.50 689.82 542.15 679.58 551.82 666.90
  Q 562.34 653.10 565.18 636.00
  Q 568.17 634.76 571.11 633.79
  C 594.66 625.99 617.81 619.97 641.72 616.54
  Z
  M 570.7864 648.6105
  A 0.80 0.68 -128.1 0 0 570.7449 649.6596
  A 0.80 0.68 -128.1 0 0 571.7736 649.8695
  A 0.80 0.68 -128.1 0 0 571.8151 648.8204
  A 0.80 0.68 -128.1 0 0 570.7864 648.6105
  Z
  M 536.8143 713.5043
  A 0.90 0.66 -137.7 0 0 537.0358 714.5982
  A 0.90 0.66 -137.7 0 0 538.1457 714.7157
  A 0.90 0.66 -137.7 0 0 537.9242 713.6218
  A 0.90 0.66 -137.7 0 0 536.8143 713.5043
  Z"
/>
<path fill="#ea4a98" d="
  M 724.08 620.95
  Q 746.88 627.51 761.89 642.86
  Q 775.77 657.06 782.33 676.45
  Q 786.29 688.17 788.00 701.02
  C 789.93 715.49 789.38 729.78 789.40 743.77
  A 1.16 1.16 0.0 0 1 787.22 744.33
  Q 781.42 733.66 772.11 726.12
  C 767.16 722.12 763.33 719.15 757.75 716.34
  Q 742.60 708.71 725.91 706.23
  Q 724.84 706.07 715.51 704.84
  C 707.05 703.73 698.54 703.85 690.03 703.98
  L 695.37 703.63
  A 0.68 0.68 0.0 0 0 695.99 703.11
  Q 698.32 693.54 702.09 684.12
  C 704.85 677.22 704.33 669.43 706.24 662.25
  Q 712.07 640.31 724.08 620.95
  Z"
/>
<path fill="#832ea6" d="
  M 565.18 636.00
  Q 562.34 653.10 551.82 666.90
  C 542.15 679.58 531.50 689.82 519.39 701.81
  Q 514.10 707.04 510.77 709.47
  C 507.19 712.08 499.37 716.24 493.79 720.34
  Q 484.93 726.86 472.35 738.70
  Q 467.10 743.65 453.12 759.32
  Q 441.06 772.84 428.75 786.25
  Q 395.22 799.01 359.43 803.18
  Q 353.83 803.83 340.29 803.77
  Q 335.57 794.76 337.22 784.60
  Q 339.39 771.23 345.10 759.73
  C 350.62 748.59 356.59 737.73 362.00 726.53
  Q 362.28 726.78 362.57 726.83
  Q 362.93 726.90 363.10 726.62
  Q 363.27 726.31 363.20 725.77
  Q 365.74 720.09 371.04 716.31
  Q 397.52 708.43 422.83 697.07
  Q 439.71 689.49 456.50 681.66
  Q 496.66 662.92 535.21 647.21
  Q 548.85 641.66 565.18 636.00
  Z
  M 474.2615 686.0396
  A 0.51 0.43 -149.3 0 0 474.4805 686.6697
  A 0.51 0.43 -149.3 0 0 475.1385 686.5604
  A 0.51 0.43 -149.3 0 0 474.9195 685.9303
  A 0.51 0.43 -149.3 0 0 474.2615 686.0396
  Z
  M 444.0143 697.5367
  A 0.73 0.46 -116.5 0 0 443.9283 698.3953
  A 0.73 0.46 -116.5 0 0 444.6657 698.8433
  A 0.73 0.46 -116.5 0 0 444.7517 697.9847
  A 0.73 0.46 -116.5 0 0 444.0143 697.5367
  Z
  M 425.9741 742.3381
  A 1.10 0.74 -33.8 0 0 424.6483 742.3351
  A 1.10 0.74 -33.8 0 0 424.1459 743.5619
  A 1.10 0.74 -33.8 0 0 425.4717 743.5649
  A 1.10 0.74 -33.8 0 0 425.9741 742.3381
  Z"
/>
<ellipse fill="#bc3ba4" cx="0.00" cy="0.00" transform="translate(571.28,649.24) rotate(-128.1)" rx="0.80" ry="0.68"/>
<path fill="#532a98" d="
  M 371.04 716.31
  Q 365.74 720.09 363.20 725.77
  Q 362.38 725.04 362.05 725.59
  Q 361.85 725.91 362.00 726.53
  C 356.59 737.73 350.62 748.59 345.10 759.73
  Q 339.39 771.23 337.22 784.60
  Q 335.57 794.76 340.29 803.77
  Q 322.07 803.37 305.37 798.88
  Q 304.24 798.58 298.13 796.37
  C 280.32 789.96 264.53 776.90 256.26 759.69
  Q 251.58 749.94 249.08 739.65
  Q 247.82 734.47 247.69 730.22
  C 247.56 725.86 246.89 721.75 246.95 717.24
  Q 247.21 695.19 255.25 674.17
  A 0.53 0.53 0.0 0 1 256.25 674.22
  C 257.97 680.55 258.88 685.37 261.25 690.27
  Q 270.57 709.49 291.39 716.87
  Q 310.71 723.72 331.24 722.76
  Q 351.48 721.83 371.04 716.31
  Z
  M 322.8310 781.6582
  A 1.01 0.74 -79.1 0 0 321.9134 782.5101
  A 1.01 0.74 -79.1 0 0 322.4490 783.6418
  A 1.01 0.74 -79.1 0 0 323.3666 782.7899
  A 1.01 0.74 -79.1 0 0 322.8310 781.6582
  Z"
/>
<ellipse fill="#532a98" cx="0.00" cy="0.00" transform="translate(329.55,680.97) rotate(-101.3)" rx="0.74" ry="0.58"/>
<ellipse fill="#bc3ba4" cx="0.00" cy="0.00" transform="translate(474.70,686.30) rotate(-149.3)" rx="0.51" ry="0.43"/>
<ellipse fill="#bc3ba4" cx="0.00" cy="0.00" transform="translate(444.34,698.19) rotate(-116.5)" rx="0.73" ry="0.46"/>
<ellipse fill="#bc3ba4" cx="0.00" cy="0.00" transform="translate(537.48,714.11) rotate(-137.7)" rx="0.90" ry="0.66"/>
<path fill="#d242a0" d="
  M 363.20 725.77
  Q 363.27 726.31 363.10 726.62
  Q 362.93 726.90 362.57 726.83
  Q 362.28 726.78 362.00 726.53
  Q 361.85 725.91 362.05 725.59
  Q 362.38 725.04 363.20 725.77
  Z"
/>
<ellipse fill="#b77ebb" fill-opacity="0.996" cx="0.00" cy="0.00" transform="translate(425.06,742.95) rotate(-33.8)" rx="1.10" ry="0.74"/>
<ellipse fill="#bc3ba4" cx="0.00" cy="0.00" transform="translate(322.64,782.65) rotate(-79.1)" rx="1.01" ry="0.74"/>
</svg>
